<?xml version="1.0" encoding="UTF-8"?>
<svg version="1.1" xmlns="http://www.w3.org/2000/svg" width="1024" height="1024">
<path d="M0 0 C337.92 0 675.84 0 1024 0 C1024 337.92 1024 675.84 1024 1024 C686.08 1024 348.16 1024 0 1024 C0 686.08 0 348.16 0 0 Z " fill="#041F36" transform="translate(0,0)"/>
<path d="M0 0 C1.76684898 -0.00346756 3.53369579 -0.00823942 5.30053818 -0.01418173 C10.09700167 -0.02657091 14.89328342 -0.02057718 19.6897471 -0.01122308 C24.88551254 -0.00438265 30.08124862 -0.01493842 35.27700806 -0.02316284 C45.43291346 -0.03645007 55.58875207 -0.03364471 65.74466 -0.02492492 C74.00537829 -0.01812822 82.26607796 -0.01724021 90.52679825 -0.02049637 C91.70601537 -0.02095607 92.88523249 -0.02141577 94.10018346 -0.0218894 C96.49634997 -0.02284865 98.89251646 -0.02382129 101.28868295 -0.02480717 C123.71864929 -0.03334659 146.14857874 -0.0235501 168.57853903 -0.00740607 C187.78773955 0.00599228 206.99688567 0.00367016 226.20608521 -0.01016235 C248.55697051 -0.02624984 270.90782355 -0.03251908 293.25871384 -0.02332556 C295.64629308 -0.02237 298.03387232 -0.02142689 300.42145157 -0.02049637 C302.18317078 -0.01980213 302.18317078 -0.01980213 303.98048028 -0.01909386 C312.22182628 -0.01651321 320.46315167 -0.02085502 328.70449448 -0.02793503 C338.7616334 -0.03638568 348.81870216 -0.03399555 358.87583314 -0.0180928 C363.99848004 -0.01025726 369.12101035 -0.00703703 374.24365616 -0.01704025 C422.61103104 -0.10358003 422.61103104 -0.10358003 444.60794067 7.38095093 C445.2400647 7.59090698 445.87218872 7.80086304 446.52346802 8.0171814 C470.2917886 15.9979123 493.27547286 31.32411213 508.60794067 51.38095093 C508.60794067 52.04095093 508.60794067 52.70095093 508.60794067 53.38095093 C509.26794067 53.38095093 509.92794067 53.38095093 510.60794067 53.38095093 C512.10136649 55.2667432 513.457497 57.13831055 514.79544067 59.13095093 C515.39437134 60.01351562 515.39437134 60.01351562 516.00540161 60.91390991 C522.32943713 70.33308891 527.4507381 79.81857697 531.60794067 90.38095093 C532.14404934 91.61255191 532.68478493 92.84216436 533.23294067 94.06845093 C536.4449859 101.80655989 538.35754047 109.43554809 539.73294067 117.69345093 C539.90180786 118.64929077 540.07067505 119.60513062 540.24465942 120.5899353 C542.34970788 132.91358511 542.75645473 145.12545952 542.74838257 157.60249329 C542.75097149 159.21893066 542.7539861 160.8353674 542.75738597 162.45180327 C542.76539731 166.86496993 542.76724224 171.27812028 542.76798344 175.69129336 C542.76984428 180.46249421 542.7773967 185.2336868 542.78411865 190.00488281 C542.79766052 200.42467026 542.80372015 210.84445383 542.80812931 221.26424861 C542.81089865 227.77926575 542.81513724 234.29428142 542.81963348 240.80929756 C542.83182053 258.87319184 542.84212109 276.93708494 542.84550858 295.00098324 C542.84572814 296.1555502 542.84594771 297.31011717 542.84617393 298.49967102 C542.8463922 299.65688373 542.84661048 300.81409644 542.84683537 302.00637621 C542.84727883 304.35104239 542.84772539 306.69570857 542.84817505 309.04037476 C542.84839648 310.20339182 542.84861791 311.36640889 542.84884605 312.5646689 C542.85279145 331.39642839 542.87024015 350.22814913 542.89353457 369.05989366 C542.91729725 388.42765903 542.92971265 407.795405 542.93087649 427.16318518 C542.93179047 438.02394669 542.93747264 448.88465768 542.95569611 459.7454052 C542.97116357 468.99572479 542.97617858 478.24597824 542.967958 487.49630832 C542.96407496 492.20778811 542.96486507 496.91913499 542.97901535 501.63059807 C543.11267751 548.95684647 535.325183 586.83388049 502.79544067 622.94345093 C502.32710815 623.4687439 501.85877563 623.99403687 501.37625122 624.5352478 C499.13589359 626.98177828 497.81115123 628.31321408 494.60794067 629.38095093 C494.60794067 630.04095093 494.60794067 630.70095093 494.60794067 631.38095093 C492.62757913 633.16602258 490.6486313 634.81306844 488.54544067 636.44345093 C487.91420288 636.93369751 487.28296509 637.42394409 486.63259888 637.92904663 C459.30775244 658.74396175 428.3921789 667.91129118 394.28507996 667.76190186 C392.52576787 667.76536948 390.76645797 667.77014138 389.0071525 667.77608359 C384.23156127 667.78847176 379.4561526 667.78247952 374.68056118 667.77312493 C369.50730992 667.76628413 364.33408813 667.77684042 359.1608429 667.7850647 C349.04938933 667.79835126 338.93800285 667.79554695 328.82654674 667.78682677 C320.60252846 667.78003018 312.37852888 667.77914202 304.15450859 667.78239822 C302.98055347 667.78285792 301.80659835 667.78331762 300.59706883 667.78379125 C298.21161059 667.7847505 295.82615237 667.78572315 293.44069415 667.78670903 C271.11185936 667.79524815 248.78306163 667.78545222 226.45423292 667.76930793 C207.3294249 667.75590786 188.20467153 667.75823317 169.0798645 667.77206421 C146.82823823 667.78814921 124.57664438 667.79442247 102.3250131 667.78522742 C99.94840491 667.78427185 97.57179672 667.78332874 95.19518852 667.78239822 C94.02609656 667.7819354 92.85700459 667.78147257 91.6524856 667.78099572 C83.44673742 667.77841445 75.24100994 667.78275817 67.03526497 667.78983688 C57.02311263 667.79828468 47.01103077 667.79590324 36.99888641 667.77999465 C31.89864116 667.7721556 26.79851306 667.76894506 21.69826889 667.77894211 C17.01571229 667.78798104 12.33337978 667.78280735 7.65084308 667.76700945 C5.97071857 667.76370008 4.29057452 667.76526716 2.61046291 667.77263682 C-38.13071918 667.9374215 -75.66610108 653.59313697 -104.85592651 624.91317749 C-112.75378386 617.0354037 -119.53549811 608.9383604 -125.39205933 599.38095093 C-126.30084839 597.91335327 -126.30084839 597.91335327 -127.22799683 596.41610718 C-129.01987697 593.43876922 -130.72203703 590.42814802 -132.39205933 587.38095093 C-132.8947937 586.4914978 -133.39752808 585.60204468 -133.91549683 584.68563843 C-139.86890651 573.1253138 -142.61406586 560.01153788 -145.39205933 547.38095093 C-145.64163725 546.30374174 -145.64163725 546.30374174 -145.89625716 545.20477074 C-147.64859304 536.83468417 -147.67222599 528.56356492 -147.64602661 520.05619812 C-147.6483343 518.41643565 -147.65151288 516.77667421 -147.6554811 515.13691491 C-147.66379587 510.65480277 -147.65971892 506.17277629 -147.65350866 501.69066393 C-147.64897138 496.84728276 -147.65597438 492.003916 -147.66146851 487.16053772 C-147.67035153 477.68033883 -147.66844505 468.20017164 -147.66264322 458.71997152 C-147.65812112 451.01060467 -147.65751621 443.30124669 -147.65969086 435.59187889 C-147.66015056 433.94415316 -147.66015056 433.94415316 -147.66061954 432.26314005 C-147.66125902 430.03132262 -147.66190744 427.7995052 -147.66256472 425.56768777 C-147.66826517 404.64871283 -147.66171529 383.72975542 -147.65096399 362.81078335 C-147.64203498 344.88307325 -147.64357572 326.95538907 -147.65280151 309.02767944 C-147.66351995 288.1898184 -147.66770932 267.35197273 -147.66157699 246.51410931 C-147.66093992 244.28910681 -147.66031118 242.0641043 -147.65969086 239.83910179 C-147.65938231 238.74448216 -147.65907375 237.64986254 -147.65875585 236.52207262 C-147.65703317 228.82950839 -147.65993494 221.13695396 -147.66464996 213.44439125 C-147.67027656 204.05849872 -147.66870532 194.67263962 -147.65808848 185.28675089 C-147.65285468 180.50301914 -147.65073558 175.71934299 -147.65738678 170.93561172 C-147.66339655 166.54658833 -147.65998922 162.15767147 -147.64943168 157.76865759 C-147.64721869 156.19065131 -147.64828592 154.61263581 -147.65318325 153.03463558 C-147.69363359 138.90398798 -146.35819451 125.18152127 -143.14205933 111.38095093 C-142.92589966 110.44944214 -142.70973999 109.51793335 -142.48703003 108.55819702 C-136.5848736 84.07003428 -124.85735747 62.52782168 -107.39205933 44.38095093 C-106.94104858 43.90415894 -106.49003784 43.42736694 -106.02536011 42.93612671 C-94.62731811 30.92051387 -82.03665212 22.03822859 -67.39205933 14.38095093 C-66.46909058 13.89755249 -65.54612183 13.41415405 -64.59518433 12.91610718 C-59.03794267 10.21514967 -53.24858604 8.1977733 -47.39205933 6.25595093 C-46.68782837 6.01401001 -45.98359741 5.77206909 -45.25802612 5.52279663 C-30.58356476 0.85939062 -15.28241542 -0.06663887 0 0 Z " fill="#031D33" transform="translate(314.3920593261719,173.61904907226563)"/>
<path d="M0 0 C3.38692726 0.00535213 6.77372131 0.00002519 10.16064453 -0.00634766 C23.32052826 -0.00994109 36.38592872 0.35754774 49.52392578 1.13037109 C49.52392578 7.73037109 49.52392578 14.33037109 49.52392578 21.13037109 C46.55863892 21.11466064 46.55863892 21.11466064 43.53344727 21.09863281 C-9.00832972 20.71504459 -9.00832972 20.71504459 -61.47607422 23.13037109 C-63.73385296 23.27672613 -65.99166336 23.42259399 -68.24951172 23.56787109 C-70.17947042 23.71007039 -72.10919203 23.85555261 -74.03857422 24.00537109 C-74.84319092 24.05935059 -75.64780762 24.11333008 -76.47680664 24.16894531 C-84.40882755 24.90619099 -88.82319428 28.96535846 -93.74414062 34.82324219 C-96.84108394 38.94871644 -99.25596643 43.39034482 -101.66357422 47.94287109 C-102.21166748 48.96880371 -102.75976074 49.99473633 -103.32446289 51.05175781 C-107.58781227 59.16365078 -111.5178351 67.40616115 -115.28857422 75.75537109 C-116.07107544 77.4701062 -116.07107544 77.4701062 -116.86938477 79.21948242 C-117.3441626 80.29609131 -117.81894043 81.3727002 -118.30810547 82.48193359 C-118.72809814 83.42891113 -119.14809082 84.37588867 -119.58081055 85.3515625 C-120.94773745 89.59436643 -120.87958979 92.91982438 -119.47607422 97.13037109 C-109.52499024 97.97020776 -99.64069341 98.29521627 -89.65820312 98.33569336 C-88.12906141 98.34530145 -86.59992219 98.35531309 -85.07078552 98.36569214 C-80.96638972 98.39243045 -76.86198278 98.41360563 -72.75754976 98.43369412 C-68.45076313 98.45574835 -64.14400958 98.4830408 -59.83724976 98.50975037 C-51.70268651 98.55941714 -43.56810466 98.60445108 -35.43350542 98.64777273 C-26.16368592 98.69736926 -16.89389963 98.75220335 -7.62411237 98.80745232 C11.42520275 98.92087234 30.47454933 99.02779646 49.52392578 99.13037109 C49.5211604 99.70591327 49.51839502 100.28145544 49.51554585 100.87443829 C49.44905349 114.93228392 49.39953277 128.99010573 49.36848927 143.04807568 C49.35307464 149.84664271 49.33208973 156.64510424 49.29760742 163.44360352 C49.26430931 170.01180431 49.2470423 176.57993694 49.23929405 183.14821815 C49.23377643 185.64667797 49.22300222 188.1451322 49.20673561 190.64354515 C48.76589573 212.64027216 48.76589573 212.64027216 55.89892578 233.13037109 C56.46353516 234.16162109 57.02814453 235.19287109 57.60986328 236.25537109 C59.62408946 239.28082103 61.94869023 241.58168437 64.52392578 244.13037109 C64.52392578 244.79037109 64.52392578 245.45037109 64.52392578 246.13037109 C63.67909071 246.12907228 62.83425564 246.12777346 61.9638195 246.12643528 C41.40735996 246.09723417 20.85123319 246.10658153 0.29481316 246.15883732 C-9.64616395 246.18317829 -19.58683616 246.19447052 -29.52783203 246.17504883 C-38.19241746 246.15815396 -46.85657647 246.1657373 -55.52110565 246.20271868 C-60.1091007 246.22144589 -64.69637456 246.22791227 -69.28436661 246.20506477 C-73.60378657 246.1839415 -77.92188569 246.19557244 -82.24118996 246.23221588 C-83.82541399 246.23990296 -85.40974815 246.23567168 -86.99389839 246.21855736 C-95.26168329 245.85418518 -95.26168329 245.85418518 -102.74645615 248.67745781 C-106.8756617 253.37249731 -107.59132225 256.9069775 -107.47607422 263.13037109 C-106.64506772 263.13297547 -106.64506772 263.13297547 -105.79727322 263.13563246 C-72.99662331 263.23855579 -40.19599501 263.34664551 -7.39538473 263.46148803 C-3.46109972 263.47525839 0.47318544 263.48898537 4.4074707 263.50268555 C5.58238884 263.506778 5.58238884 263.506778 6.7810427 263.51095314 C19.48061688 263.55508455 32.18020001 263.5956987 44.87978988 263.63502371 C57.90094135 263.67542233 70.92207614 263.71957591 83.94320303 263.76724964 C91.98446684 263.79657141 100.02572933 263.82292875 108.06701482 263.84555007 C114.22257476 263.86317951 120.37810508 263.88602132 126.53363991 263.91086197 C129.06654151 263.92025405 131.59945015 263.92792149 134.13236237 263.93379021 C137.57398975 263.94201489 141.01553875 263.95628102 144.45713806 263.97215271 C145.47365367 263.97313082 146.49016929 263.97410892 147.5374884 263.97511667 C148.45212909 263.98059111 149.36676978 263.98606556 150.30912685 263.99170589 C151.10464095 263.99436394 151.90015504 263.99702198 152.71977562 263.99976057 C154.52392578 264.13037109 154.52392578 264.13037109 155.52392578 265.13037109 C155.76815336 269.56236155 155.75252844 274.00024752 155.76416016 278.43823242 C155.77378156 280.65957298 155.80474853 282.87995446 155.83642578 285.10107422 C155.95863097 300.92670206 155.95863097 300.92670206 150.69189453 307.37255859 C150.03833984 307.91138672 149.38478516 308.45021484 148.71142578 309.00537109 C148.06560547 309.55966797 147.41978516 310.11396484 146.75439453 310.68505859 C141.65329027 313.99050268 136.5032946 314.43878293 130.56298828 314.43115234 C129.81358978 314.43543747 129.06419128 314.4397226 128.29208374 314.44413757 C126.71377569 314.44985482 125.1354413 314.45040044 123.55712891 314.44604492 C121.16278354 314.44288936 118.76968087 314.46635994 116.37548828 314.49169922 C114.83382315 314.49397318 113.29215475 314.49467526 111.75048828 314.49365234 C111.04501862 314.50286209 110.33954895 314.51207184 109.61270142 314.52156067 C103.11795135 314.46213491 97.668571 312.98906362 92.71142578 308.69287109 C91.98955078 307.84724609 91.26767578 307.00162109 90.52392578 306.13037109 C89.96705078 305.55287109 89.41017578 304.97537109 88.83642578 304.38037109 C85.57215536 298.78447893 85.42099918 292.66366473 85.47314453 286.31396484 C85.48414185 284.57264282 85.48414185 284.57264282 85.49536133 282.79614258 C85.5047876 281.91643799 85.51421387 281.0367334 85.52392578 280.13037109 C60.36752757 280.09744892 35.21141383 280.10442546 10.05504608 280.15883732 C-1.6256559 280.18317287 -13.30609847 280.19447606 -24.98681641 280.17504883 C-35.16833881 280.15814816 -45.34949838 280.16575111 -55.53097296 280.20271868 C-60.92159563 280.22143716 -66.31160471 280.22792555 -71.70222473 280.20506477 C-76.77833452 280.18392509 -81.85332116 280.19560031 -86.92933273 280.23221588 C-88.79007837 280.23989611 -90.65091786 280.23568764 -92.51160049 280.21855736 C-103.6995326 279.71539612 -103.6995326 279.71539612 -113.25854492 284.62916565 C-114.10544765 285.57645806 -114.10544765 285.57645806 -114.96945953 286.54288769 C-116.47607422 288.13037109 -116.47607422 288.13037109 -119.62414551 289.01925659 C-120.63037964 289.02482574 -121.63661377 289.0303949 -122.67333984 289.03613281 C-123.82813843 289.05819794 -124.98293701 289.08026306 -126.17272949 289.10299683 C-128.00897888 289.0817424 -128.00897888 289.0817424 -129.88232422 289.06005859 C-131.1615979 289.06675568 -132.44087158 289.07345276 -133.75891113 289.08035278 C-136.45576746 289.09062213 -139.15099119 289.0758469 -141.84765625 289.04296875 C-145.28495476 289.00307708 -148.71842778 289.02606964 -152.15558624 289.067976 C-155.46062947 289.09952118 -158.76467268 289.07736128 -162.06982422 289.06005859 C-163.29399048 289.07422821 -164.51815674 289.08839783 -165.77941895 289.10299683 C-172.68674742 288.97101618 -176.84179945 288.14530744 -181.90441895 283.31253052 C-186.61828103 276.76758472 -186.91522234 271.06202153 -186.88012695 263.21655273 C-186.8869902 262.13907776 -186.89385345 261.06160278 -186.90092468 259.95147705 C-186.91918754 256.39769204 -186.91535296 252.84434914 -186.90966797 249.29052734 C-186.91423261 246.8053727 -186.91953902 244.32021931 -186.92555237 241.83506775 C-186.93562707 235.95754903 -186.92952747 230.08018622 -186.91829878 224.20267433 C-186.90912244 218.22896554 -186.93370645 212.25555419 -186.96003628 206.28189945 C-186.97849638 201.1453674 -186.97808552 196.00896105 -186.97239876 190.8724041 C-186.97224649 188.42667329 -186.97821193 185.98093343 -186.99069023 183.53523445 C-187.09317533 160.1392489 -184.50594451 137.98120068 -167.61669922 120.16943359 C-166.46848412 119.04662148 -165.31383814 117.93033552 -164.15185547 116.82177734 C-158.53070294 111.28683303 -158.53070294 111.28683303 -156.47607422 104.13037109 C-157.75482422 104.02080078 -159.03357422 103.91123047 -160.35107422 103.79833984 C-162.05946197 103.63876516 -163.76779242 103.47857612 -165.47607422 103.31787109 C-166.73484375 103.21249023 -166.73484375 103.21249023 -168.01904297 103.10498047 C-174.58789869 102.46846344 -180.84521939 101.49139466 -185.91357422 96.94287109 C-187.92823172 93.31648759 -188.79592743 90.28846279 -188.47607422 86.13037109 C-185.05787139 78.69949537 -178.26653266 74.61254047 -170.85107422 71.81787109 C-163.97127567 69.54035537 -155.30500314 67.19368052 -148.26513672 70.01708984 C-146.47607422 71.13037109 -146.47607422 71.13037109 -145.47607422 73.13037109 C-145.39206893 74.72484573 -145.36879955 76.32277654 -145.37841797 77.91943359 C-145.38164062 78.86044922 -145.38486328 79.80146484 -145.38818359 80.77099609 C-145.40075195 82.24826172 -145.40075195 82.24826172 -145.41357422 83.75537109 C-145.41808594 84.74794922 -145.42259766 85.74052734 -145.42724609 86.76318359 C-145.43905277 89.21897269 -145.45552022 91.67464213 -145.47607422 94.13037109 C-140.92747446 90.09076207 -138.39543481 85.7782184 -135.66357422 80.38037109 C-135.22835449 79.53837158 -134.79313477 78.69637207 -134.34472656 77.82885742 C-131.63702253 72.54779352 -129.08115225 67.20872276 -126.60107422 61.81787109 C-105.16646671 15.27256535 -105.16646671 15.27256535 -88.35888672 7.10302734 C-79.43458374 4.09198203 -70.08420572 3.50747271 -60.75683594 2.75268555 C-58.50772377 2.57043572 -56.25948694 2.37950112 -54.01123047 2.18701172 C-49.50152728 1.80631327 -44.98981612 1.45950968 -40.47607422 1.13037109 C-39.42296051 1.05248352 -39.42296051 1.05248352 -38.34857178 0.97302246 C-25.56962673 0.05840975 -12.80769569 -0.02400866 0 0 Z " fill="#F5F3F1" transform="translate(429.47607421875,402.86962890625)"/>
<path d="M0 0 C0.72256485 0.00424484 1.4451297 0.00848969 2.18959045 0.01286316 C4.47184318 0.02950457 6.75317558 0.06712627 9.03515625 0.10546875 C10.5930861 0.12053452 12.15102995 0.13421959 13.70898438 0.14648438 C17.50583836 0.17679455 21.30073109 0.23553627 25.09765625 0.29296875 C25.09765625 7.55296875 25.09765625 14.81296875 25.09765625 22.29296875 C22.04451172 22.34904297 22.04451172 22.34904297 18.9296875 22.40625 C16.94715869 22.45494369 14.96463097 22.50374069 12.98217773 22.55541992 C11.60989667 22.58856681 10.23748263 22.61663046 8.86499023 22.6394043 C6.88627859 22.67313641 4.90794249 22.72698365 2.9296875 22.78125 C1.14655151 22.82052612 1.14655151 22.82052612 -0.67260742 22.8605957 C-4.21511719 23.33484053 -6.09761607 24.10071409 -8.90234375 26.29296875 C-10.86975903 29.4186952 -11.15335742 31.84388228 -11.15681934 35.5032568 C-11.16265154 36.56360636 -11.16848373 37.62395592 -11.17449266 38.71643728 C-11.17071333 39.88033265 -11.16693401 41.04422802 -11.16304016 42.24339294 C-11.16686571 43.48059918 -11.17069126 44.71780542 -11.17463273 45.99250275 C-11.18317797 49.4285623 -11.18272455 52.86440833 -11.17845213 56.30046189 C-11.17598949 60.00537316 -11.18499331 63.71025908 -11.19248962 67.41516113 C-11.20525141 74.67410923 -11.20702849 81.93302036 -11.20468936 89.19197779 C-11.20290773 95.09096712 -11.2046525 100.9899452 -11.2089138 106.88893318 C-11.20950899 107.72788206 -11.21010418 108.56683094 -11.21071741 109.43120252 C-11.21192913 111.13541873 -11.21314327 112.83963494 -11.21435978 114.54385114 C-11.22524097 130.5328187 -11.22307006 146.52176517 -11.21697494 162.51073391 C-11.21180495 177.14411099 -11.22306235 191.77742152 -11.24207316 206.41078543 C-11.26143586 221.42993733 -11.26971033 236.44905773 -11.2659499 251.4682222 C-11.26403551 259.9029087 -11.26654855 268.33753855 -11.28066444 276.77221489 C-11.29255924 283.95249383 -11.29400455 291.13268124 -11.28187428 298.31296139 C-11.27597223 301.97737531 -11.27492252 305.64162165 -11.28687668 309.30602455 C-11.2996772 313.27595372 -11.28930252 317.24562702 -11.27656555 321.21556091 C-11.28393984 322.37722556 -11.29131412 323.53889021 -11.29891187 324.73575681 C-11.29170533 325.79871412 -11.28449878 326.86167143 -11.27707386 327.95683956 C-11.27712888 328.87321475 -11.27718389 329.78958994 -11.27724057 330.73373407 C-10.71892051 334.54510822 -9.23814808 337.22726481 -6.21562815 339.6386295 C-0.6649852 342.41927493 4.07742948 342.85864809 10.2310791 342.79417419 C11.2245732 342.79970859 12.21806729 342.80524299 13.24166727 342.81094509 C16.55655154 342.824512 19.87067773 342.80960339 23.18554688 342.79467773 C25.56780822 342.79846233 27.95006736 342.80396353 30.33232117 342.81105042 C36.12259401 342.82355581 41.91262561 342.81744844 47.70288789 342.80237483 C54.45153285 342.78547792 61.20012388 342.78872964 67.94878346 342.79246891 C79.99340623 342.79834216 92.03792434 342.78419702 104.08251953 342.75952148 C115.75931725 342.73560227 127.43597515 342.7285179 139.11279297 342.73901367 C151.84031806 342.75043344 164.56777854 342.75233987 177.29530287 342.73791558 C178.65350818 342.7363898 180.0117135 342.73486944 181.36991882 342.73335457 C182.03811202 342.73259675 182.70630522 342.73183894 183.39474669 342.73105816 C188.09441713 342.72632351 192.79405864 342.72816095 197.49372864 342.73241997 C203.82375947 342.73719547 210.153597 342.72706397 216.48359108 342.70546532 C218.80553854 342.69990515 221.1275046 342.69942507 223.44945335 342.70441818 C226.62126056 342.710383 229.79247916 342.69784226 232.9642334 342.6806488 C233.88097414 342.68665885 234.79771489 342.69266889 235.74223566 342.69886106 C241.52344388 342.64195688 245.83370913 341.74008937 251.09765625 339.29296875 C254.88277415 335.31374224 256.22165692 332.78454926 256.22908401 327.37842178 C256.23292516 326.33312121 256.2367663 325.28782063 256.24072385 324.21084428 C256.23942412 322.47479515 256.23942412 322.47479515 256.23809814 320.70367432 C256.24106927 319.48113315 256.24404039 318.25859199 256.24710155 316.99900413 C256.25429772 313.5946189 256.25696209 310.19028411 256.25769901 306.78589487 C256.25954654 303.1184269 256.26709239 299.45096993 256.27383423 295.7835083 C256.28743106 287.75868792 256.2934445 279.73387253 256.29784489 271.70904255 C256.3006053 266.7001084 256.30484231 261.69117619 256.30934906 256.68224335 C256.321544 242.81954698 256.33184254 228.95685216 256.33522415 215.09415054 C256.33544372 214.20644678 256.33566328 213.31874302 256.3358895 212.40413915 C256.33610778 211.51428371 256.33632606 210.62442826 256.33655095 209.70760751 C256.33699442 207.90435553 256.33744098 206.10110354 256.33789062 204.29785156 C256.33811205 203.403372 256.33833348 202.50889243 256.33856162 201.58730742 C256.34250962 187.09351242 256.35996269 172.59976769 256.38325015 158.10599211 C256.40695489 143.23267459 256.41942562 128.35938231 256.42059207 113.4860456 C256.42150938 105.13233437 256.42727565 96.77868863 256.44541168 88.42499542 C256.46080092 81.31131062 256.46594015 74.19771153 256.45767358 67.08401325 C256.45376273 63.45391379 256.45471763 59.82398699 256.46873093 56.19390869 C256.48378111 52.25926352 256.47561604 48.32486227 256.46514893 44.39019775 C256.47320533 43.24175455 256.48126173 42.09331135 256.48956227 40.91006684 C256.45465147 35.31715257 256.37293484 31.06753901 253.09765625 26.29296875 C249.2814108 23.18152725 246.10736393 22.88789623 241.265625 22.78125 C239.97333984 22.74580078 238.68105469 22.71035156 237.34960938 22.67382812 C235.99479691 22.65073194 234.63997907 22.6279494 233.28515625 22.60546875 C231.91077508 22.57227114 230.53642454 22.53777922 229.16210938 22.50195312 C225.80758018 22.41956118 222.45263134 22.35458641 219.09765625 22.29296875 C219.09765625 15.03296875 219.09765625 7.77296875 219.09765625 0.29296875 C223.43696196 0.17701343 227.77071977 0.07786852 232.11035156 0.01831055 C233.58059065 -0.00655709 235.05070983 -0.04046487 236.52050781 -0.08422852 C248.57837643 -0.43379156 258.18942078 1.26568834 267.97265625 8.85546875 C273.51305172 14.13395461 278.79027439 22.76608803 279.22530675 30.58818907 C279.22655325 31.49794935 279.22779974 32.40770964 279.22908401 33.34503841 C279.23292516 34.39559664 279.2367663 35.44615486 279.24072385 36.52854818 C279.23985737 37.68669061 279.23899088 38.84483303 279.23809814 40.03807068 C279.24255483 41.87906463 279.24255483 41.87906463 279.24710155 43.75725037 C279.25429034 47.17059568 279.25696153 50.58389067 279.25769901 53.99723995 C279.2595484 57.67639346 279.26709538 61.35553603 279.27383423 65.03468323 C279.28742546 73.08463985 279.2934441 81.13459149 279.29784489 89.18455768 C279.30060718 94.21280762 279.30484463 99.24105563 279.30934906 104.26930428 C279.32154504 118.19465101 279.33184222 132.11999621 279.33522415 146.04534817 C279.33544372 146.93694266 279.33566328 147.82853715 279.3358895 148.74714965 C279.33610778 149.64087413 279.33632606 150.53459861 279.33655095 151.45540565 C279.33699442 153.26641301 279.33744098 155.07742037 279.33789062 156.88842773 C279.33811205 157.78674917 279.33833348 158.6850706 279.33856162 159.61061389 C279.34250581 174.15202411 279.35994675 188.6933841 279.38325015 203.23477494 C279.40698972 218.16917374 279.41942727 233.10354738 279.42059207 248.03796536 C279.42150761 256.42091643 279.42722897 264.80380213 279.44541168 273.18673515 C279.46084818 280.32877036 279.46591243 287.47072003 279.45767358 294.61276876 C279.45377898 298.2537448 279.45463788 301.89454876 279.46873093 305.53550339 C279.48390473 309.49208021 279.47556765 313.44841771 279.46514893 317.40501404 C279.47723353 319.11211293 279.47723353 319.11211293 279.48956227 320.85369867 C279.41516491 332.97915219 277.03953635 343.861082 269.09765625 353.29296875 C259.64992206 362.03176117 249.9519254 364.76036831 237.31958008 364.6806488 C236.28086919 364.68603434 235.2421583 364.69141988 234.17197132 364.69696862 C230.71608703 364.71119503 227.26058864 364.70415751 223.8046875 364.69702148 C221.31700331 364.70272776 218.82932175 364.70969301 216.34164429 364.71781921 C210.30101798 364.73387756 204.26054145 364.73585745 198.21990848 364.73060631 C193.30794138 364.72655495 188.39600495 364.72801959 183.48403931 364.73335457 C182.78333968 364.73410299 182.08264005 364.73485141 181.3607071 364.73562251 C179.93698175 364.73715408 178.5132564 364.73869243 177.08953106 364.74023748 C163.75809679 364.75394463 150.42672131 364.74853704 137.0952884 364.73705227 C124.91321901 364.72711802 112.73130146 364.74006699 100.54925549 364.76398646 C88.02155736 364.78839818 75.49392989 364.79798048 62.96620846 364.79133373 C55.94045023 364.78784659 48.91480878 364.79004031 41.8890686 364.80758476 C35.28322309 364.82387707 28.67762009 364.81909299 22.0717659 364.80027962 C19.6506722 364.79659525 17.229557 364.7996977 14.80848312 364.81016541 C11.4972332 364.82338652 8.18694161 364.81181678 4.87573242 364.79417419 C3.92338117 364.8037792 2.97102991 364.81338421 1.98981953 364.82328027 C-8.60070588 364.70760361 -16.14341558 360.91567324 -23.70703125 353.6484375 C-32.66240751 344.03973308 -34.35630426 333.28065145 -34.2900238 320.49607849 C-34.29540934 319.24023376 -34.30079488 317.98438903 -34.30634362 316.6904884 C-34.32071938 313.23009861 -34.31657845 309.76994859 -34.3091768 306.30954611 C-34.30442793 302.56784278 -34.31696996 298.82619005 -34.32719421 295.08450317 C-34.34435262 287.76486207 -34.34522857 280.44530692 -34.33998131 273.12565093 C-34.33593369 267.17534742 -34.33739017 261.22506923 -34.34272957 255.27476692 C-34.34347799 254.42668443 -34.34422641 253.57860193 -34.34499751 252.70481997 C-34.34652904 250.98176788 -34.34806739 249.2587158 -34.34961248 247.53566373 C-34.36332623 231.39393279 -34.35790723 215.25225037 -34.34642727 199.11052055 C-34.33649089 184.35087502 -34.34944454 169.59135478 -34.37336146 154.83172857 C-34.39775522 139.66319903 -34.40735997 124.49472785 -34.40070873 109.32617909 C-34.3972178 100.81542729 -34.39944058 92.3047719 -34.41695976 83.79403496 C-34.43168498 76.55104188 -34.43231278 69.30821313 -34.41488885 62.06522327 C-34.40638002 58.37187488 -34.40422627 54.67882002 -34.41954041 50.98548698 C-34.43595243 46.97771215 -34.42123305 42.97064469 -34.40354919 38.96287537 C-34.4131542 37.80139101 -34.42275921 36.63990665 -34.43265527 35.4432258 C-34.33898293 25.12415991 -31.07280773 16.81243761 -23.90234375 9.29296875 C-16.61269929 3.41336501 -9.45023537 -0.21339487 0 0 Z " fill="#F6F4F2" transform="translate(526.90234375,282.70703125)"/>
<path d="M0 0 C0.98226562 0.79470703 0.98226562 0.79470703 1.984375 1.60546875 C2.59796875 2.08371094 3.2115625 2.56195313 3.84375 3.0546875 C11.92254659 10.15044468 16.11737498 21.36562689 18.4765625 31.59375 C18.79754301 33.58948231 18.79754301 33.58948231 19.984375 34.60546875 C22.07053408 34.72749508 24.16050738 34.78524966 26.25 34.81640625 C28.17392578 34.85894531 28.17392578 34.85894531 30.13671875 34.90234375 C32.18179755 34.94349025 34.22664835 34.98036876 36.27197266 35.00683594 C38.24403977 35.03457785 40.21580667 35.08153824 42.1875 35.12890625 C43.36989258 35.14872559 44.55228516 35.16854492 45.77050781 35.18896484 C49.26353073 35.64164618 51.17901889 36.51202462 53.984375 38.60546875 C55.59226851 41.82125576 55.1899746 45.33255677 55.22265625 48.8671875 C55.230728 49.6912056 55.23879974 50.51522369 55.24711609 51.36421204 C55.26096023 53.11184586 55.27168091 54.85950676 55.27954102 56.60717773 C55.2966967 59.26534265 55.34057128 61.92224505 55.38476562 64.58007812 C55.39489786 66.27993879 55.4034123 67.97981002 55.41015625 69.6796875 C55.42766434 70.46848801 55.44517242 71.25728851 55.46321106 72.06999207 C55.44132473 77.70924373 54.4610094 81.09235722 50.984375 85.60546875 C44.48375644 89.47264515 37.92220706 89.02915781 30.52514648 88.99365234 C29.16440409 88.99772233 27.80366501 89.0030666 26.44293213 89.00958252 C22.76322597 89.02321001 19.08377334 89.01797688 15.40406299 89.00844526 C11.54582226 89.00082643 7.68760259 89.00790029 3.82936096 89.01260376 C-2.64757162 89.0180542 -9.1244014 89.01088775 -15.60131836 88.99658203 C-23.08191106 88.98024994 -30.56225852 88.98555085 -38.04284531 89.00206125 C-44.47532005 89.01568822 -50.9077211 89.01759008 -57.34020561 89.00974524 C-61.17783403 89.00507625 -65.01534727 89.00442263 -68.85296822 89.01435471 C-72.46050591 89.02304004 -76.0677282 89.01697421 -79.67523193 88.99967194 C-81.62539744 88.99383316 -83.57558972 89.00270878 -85.52574158 89.01205444 C-96.28994863 88.93407245 -96.28994863 88.93407245 -101.015625 85.60546875 C-106.01385417 80.33706503 -106.17656387 75.97486629 -106.21875 68.953125 C-106.22445007 68.21597763 -106.23015015 67.47883026 -106.23602295 66.71934509 C-106.24544766 65.16357854 -106.25199686 63.60779226 -106.25585938 62.05200195 C-106.26557778 59.67949531 -106.29662879 57.30785092 -106.328125 54.93554688 C-106.33465465 53.42057804 -106.33990527 51.90560303 -106.34375 50.390625 C-106.3560968 49.68527115 -106.3684436 48.9799173 -106.38116455 48.25318909 C-106.36137619 43.85243674 -105.73320355 41.09159507 -103.015625 37.60546875 C-99.43140204 35.21598678 -97.64329904 35.30313707 -93.37890625 35.19140625 C-92.08017578 35.15273438 -90.78144531 35.1140625 -89.44335938 35.07421875 C-88.07161927 35.04276358 -86.69987439 35.01151624 -85.328125 34.98046875 C-83.94463715 34.94227678 -82.56117277 34.90322433 -81.17773438 34.86328125 C-77.7905005 34.76886358 -74.40327431 34.68328757 -71.015625 34.60546875 C-70.82516602 34.02539062 -70.63470703 33.4453125 -70.43847656 32.84765625 C-65.33024988 17.38905265 -59.09594626 3.32006735 -44.015625 -4.70703125 C-29.44366864 -11.28700379 -12.91844199 -9.5473887 0 0 Z " fill="#F6F3F1" transform="translate(674.015625,231.39453125)"/>
<path d="M0 0 C0.93835693 -0.0049649 1.87671387 -0.00992981 2.84350586 -0.01504517 C5.95777105 -0.02968857 9.07198529 -0.03647265 12.1862793 -0.04199219 C14.34620669 -0.04774214 16.50613405 -0.05349989 18.6660614 -0.05926514 C23.19973998 -0.06978153 27.73340078 -0.07561992 32.26708984 -0.07910156 C38.07792151 -0.08458559 43.88851877 -0.1086091 49.69927692 -0.13707352 C54.162803 -0.15569339 58.62627257 -0.16090517 63.08983421 -0.16243744 C65.23206043 -0.1654663 67.37428559 -0.17350264 69.51647377 -0.18662262 C72.51376818 -0.20366821 75.51048935 -0.20180631 78.5078125 -0.1953125 C79.39371567 -0.20452728 80.27961884 -0.21374207 81.19236755 -0.22323608 C86.39488018 -0.18790916 90.08250119 0.29563596 93.94799805 4.16113281 C94.6184848 10.48987359 92.78457661 14.41352555 89.82299805 19.78613281 C89.25452148 20.89214844 89.25452148 20.89214844 88.67456055 22.02050781 C85.33436761 28.23326668 82.09186545 32.03239478 75.2487793 34.48925781 C73.92343927 34.81372408 72.59375334 35.12090037 71.26049805 35.41113281 C70.61661133 35.57097656 69.97272461 35.73082031 69.30932617 35.89550781 C58.90389199 38.33666539 48.26917763 38.34305083 37.63549805 38.34863281 C36.41926758 38.36087891 35.20303711 38.373125 33.94995117 38.38574219 C20.17882309 38.40768238 5.52749327 38.03532835 -5.05200195 28.16113281 C-6.70591492 25.68579663 -8.00800991 23.08870097 -9.30200195 20.41113281 C-9.82793945 19.3940625 -9.82793945 19.3940625 -10.36450195 18.35644531 C-12.72323592 13.58454506 -13.78062156 9.49058187 -14.05200195 4.16113281 C-10.65645917 -0.8513351 -5.47968085 0.00686735 0 0 Z " fill="#061F34" transform="translate(373.052001953125,568.8388671875)"/>
<path d="M0 0 C4.90819073 1.43883947 9.66802288 3.22415069 14.4375 5.0625 C15.76268568 5.56281895 17.08821054 6.0622404 18.4140625 6.56079102 C22.28350764 8.02147243 26.14194735 9.50949323 30 11 C31.06879395 11.40831055 32.13758789 11.81662109 33.23876953 12.23730469 C35.9970516 13.29281398 38.74997939 14.36067362 41.5 15.4375 C42.28689209 15.74244385 43.07378418 16.0473877 43.88452148 16.36157227 C53.31346442 20.1366922 57.68399883 24.6838073 62.3125 33.5 C63.32818305 37.19339291 63.30955712 40.16149177 63 44 C61.46304573 46.11318315 60.58529076 46.8904548 58.00056458 47.3742218 C56.85716866 47.37327766 56.85716866 47.37327766 55.69067383 47.37231445 C54.38704643 47.38165764 54.38704643 47.38165764 53.05708313 47.39118958 C52.11656601 47.38197983 51.17604889 47.37277008 50.20703125 47.36328125 C49.2282048 47.36377975 48.24937836 47.36427826 47.2408905 47.36479187 C45.16032899 47.36244819 43.07976482 47.35270243 40.99926758 47.33618164 C37.86968442 47.31292495 34.74097377 47.31557676 31.61132812 47.32226562 C-4.34310008 47.27405493 -4.34310008 47.27405493 -14.5 37.625 C-18.09864869 31.32736479 -18.36441339 25.09302742 -18.375 18 C-18.39949219 17.13632812 -18.42398437 16.27265625 -18.44921875 15.3828125 C-18.4765193 9.39489246 -17.52079538 5.88081382 -14 1 C-9.36487713 -2.09008192 -5.32905234 -0.99613706 0 0 Z " fill="#041D32" transform="translate(278,544)"/>
<path d="M0 0 C3.70793338 2.33462472 5.58995021 3.84221237 7.0625 8 C6.94624188 13.58038992 3.28953365 16.96014906 -0.49975586 20.74267578 C-1.40757309 21.65356964 -2.31539032 22.5644635 -3.25071716 23.50296021 C-4.23858007 24.48392489 -5.22662674 25.46470455 -6.21484375 26.4453125 C-7.23267005 27.46194533 -8.25012547 28.47894961 -9.26722717 29.49630737 C-11.39504166 31.62256163 -13.52616101 33.74542632 -15.65991211 35.86572266 C-18.38975884 38.57856956 -21.11296618 41.29796303 -23.83394527 44.019701 C-25.93291537 46.11839871 -28.03448523 48.21447653 -30.13693428 50.30968857 C-31.14181416 51.31139512 -32.14609732 52.31370067 -33.14976311 53.31662369 C-34.55428522 54.71896866 -35.96249269 56.1176196 -37.37084961 57.51611328 C-38.56973061 58.70927658 -38.56973061 58.70927658 -39.79283142 59.92654419 C-45.68559654 65.46231893 -45.68559654 65.46231893 -50.06640625 65.83203125 C-56.04548665 65.62256132 -59.17869129 61.7683257 -63.15820312 57.68164062 C-64.08495454 56.68389007 -65.0113837 55.6858401 -65.9375 54.6875 C-66.88920444 53.69917284 -67.84296644 52.71282266 -68.79882812 51.72851562 C-77.8534559 42.297962 -77.8534559 42.297962 -78.4375 37.125 C-78.33815551 33.7534962 -77.99002074 32.98578711 -75.9375 30.0625 C-72.2755773 27.49136279 -70.49651023 26.69515185 -66 27 C-62.26949787 29.40747521 -59.30097651 32.5615964 -56.3359375 35.83984375 C-54.66914117 37.71260007 -54.66914117 37.71260007 -52 40 C-47.8848317 39.78610258 -45.91479068 38.40589702 -43.08349609 35.52172852 C-42.352789 34.78749161 -41.62208191 34.0532547 -40.86923218 33.29676819 C-40.09511993 32.49887375 -39.32100769 31.70097931 -38.5234375 30.87890625 C-37.7163736 30.06381088 -36.90930969 29.24871552 -36.07778931 28.40892029 C-33.50059115 25.80271669 -30.93738996 23.18325711 -28.375 20.5625 C-25.802939 17.94793948 -23.22807619 15.33619844 -20.65078735 12.72679138 C-19.04785662 11.10215715 -17.44843558 9.47405119 -15.85287476 7.84217834 C-15.12847198 7.10478928 -14.40406921 6.36740021 -13.65771484 5.60766602 C-13.02215668 4.95782242 -12.38659851 4.30797882 -11.73178101 3.63844299 C-7.82547172 -0.05732746 -5.28964799 -0.62758535 0 0 Z " fill="#F5F3F1" transform="translate(621,441)"/>
<path d="M0 0 C3 2 3 2 5 5 C5.66878933 8.39967911 5.92378468 9.81762928 5 13 C3.74775696 14.80201721 3.74775696 14.80201721 2.0793457 16.62719727 C1.44316315 17.32370392 0.80698059 18.02021057 0.15151978 18.73782349 C-3.84381955 22.93865069 -7.91564075 27.05770231 -12.01953125 31.15234375 C-12.96895157 32.10243935 -13.91822354 33.0526832 -14.86735535 34.00306702 C-16.83988497 35.97705877 -18.81418139 37.94926086 -20.78979492 39.92016602 C-23.32297661 42.447604 -25.85157828 44.9795695 -28.37891102 47.51285458 C-30.33044808 49.46799755 -32.28435093 51.42076218 -34.23898888 53.37280464 C-35.62631865 54.75914415 -37.01163665 56.14749591 -38.39692688 57.53587341 C-39.65414803 58.78836632 -39.65414803 58.78836632 -40.93676758 60.06616211 C-41.6751033 60.80370224 -42.41343903 61.54124237 -43.17414856 62.3011322 C-46.2286828 65.14323082 -49.15338901 65.76255327 -53.34375 65.71386719 C-59.30734959 64.1111498 -63.40311683 58.52400121 -67.5 54.125 C-68.50835135 53.08003435 -69.51875282 52.03704289 -70.53125 50.99609375 C-78.8399251 42.38731582 -78.8399251 42.38731582 -79.375 37.75 C-78.88990832 32.89908323 -77.69142249 31.15309004 -74 28 C-70.51256385 27.2567759 -69.24343264 26.99465557 -66 28 C-62.3877109 30.39930641 -59.438644 33.38543486 -56.5625 36.61328125 C-55.2066724 38.17494752 -55.2066724 38.17494752 -53 40 C-48.82306488 39.73664606 -46.85615077 38.3464737 -43.97583008 35.4140625 C-43.22187454 34.65657715 -42.46791901 33.8990918 -41.69111633 33.11865234 C-40.89199326 32.29574707 -40.09287018 31.4728418 -39.26953125 30.625 C-38.43789963 29.78533691 -37.60626801 28.94567383 -36.74943542 28.08056641 C-34.09419612 25.39631652 -31.45294821 22.69879402 -28.8125 20 C-26.15879839 17.30384109 -23.50230627 14.61048881 -20.84342957 11.91943359 C-19.18936936 10.24361566 -17.53881067 8.5643333 -15.89204407 6.88134766 C-14.77529549 5.74511963 -14.77529549 5.74511963 -13.63598633 4.5859375 C-12.98044266 3.9161084 -12.32489899 3.2462793 -11.64949036 2.55615234 C-8.26712309 -0.63482039 -4.4401677 -0.73012318 0 0 Z " fill="#F6F4F2" transform="translate(622,522)"/>
<path d="M0 0 C3.25415498 2.40524498 4.69571685 4.10616823 6 7.9375 C6 13.74595663 2.93262557 17.25708325 -0.94921875 21.27734375 C-2.52095779 22.83850759 -4.10064895 24.39169926 -5.6875 25.9375 C-6.46544922 26.71029297 -7.24339844 27.48308594 -8.04492188 28.27929688 C-11.56403619 31.75145053 -15.11409913 35.14151487 -18.87109375 38.35546875 C-24.32831854 43.05997288 -29.31896509 48.24899689 -34.375 53.375 C-36.33826571 55.36485621 -38.30483831 57.35135935 -40.2734375 59.3359375 C-41.13372559 60.20782715 -41.99401367 61.0797168 -42.88037109 61.97802734 C-46.11100151 65.05981508 -48.45082743 65.39484012 -52.92947388 65.32617188 C-56.47963429 64.76691186 -58.28877876 62.73133652 -60.77734375 60.25 C-61.27416153 59.75846436 -61.77097931 59.26692871 -62.28285217 58.76049805 C-63.32343758 57.72096966 -64.35415253 56.67147572 -65.37524414 55.61279297 C-66.93229831 54.00536996 -68.52539193 52.44184894 -70.12695312 50.87890625 C-71.13782431 49.85915188 -72.14637073 48.83708665 -73.15234375 47.8125 C-74.05976318 46.89082031 -74.96718262 45.96914063 -75.90209961 45.01953125 C-78.64919221 41.06561047 -78.91038826 38.79225351 -79 34 C-76.61691389 29.90407075 -75.07717219 28.35252908 -70.5625 26.875 C-64.19999499 27.09824579 -61.09987847 30.86157476 -56.9375 35.25 C-55.99197266 36.30960937 -55.99197266 36.30960937 -55.02734375 37.390625 C-53.10425021 39.13789167 -53.10425021 39.13789167 -50.68359375 39.61328125 C-46.46280498 38.64870507 -44.14462041 35.92936797 -41.125 32.9375 C-40.45388184 32.29151855 -39.78276367 31.64553711 -39.09130859 30.97998047 C-31.47126539 23.59832968 -23.99872981 16.05549122 -16.54345703 8.50756836 C-16.05800415 8.0177095 -15.57255127 7.52785065 -15.0723877 7.02314758 C-13.74127014 5.67949708 -12.41278918 4.33323605 -11.08447266 2.98681641 C-7.50037621 -0.42936735 -4.90229531 -0.49853851 0 0 Z " fill="#F5F3F1" transform="translate(622,360)"/>
<path d="M0 0 C0.93835693 -0.0049649 1.87671387 -0.00992981 2.84350586 -0.01504517 C5.95777105 -0.02968857 9.07198529 -0.03647265 12.1862793 -0.04199219 C14.34620669 -0.04774214 16.50613405 -0.05349989 18.6660614 -0.05926514 C23.19973998 -0.06978153 27.73340078 -0.07561992 32.26708984 -0.07910156 C38.07792151 -0.08458559 43.88851877 -0.1086091 49.69927692 -0.13707352 C54.162803 -0.15569339 58.62627257 -0.16090517 63.08983421 -0.16243744 C65.23206043 -0.1654663 67.37428559 -0.17350264 69.51647377 -0.18662262 C72.51376818 -0.20366821 75.51048935 -0.20180631 78.5078125 -0.1953125 C79.39371567 -0.20452728 80.27961884 -0.21374207 81.19236755 -0.22323608 C85.92398317 -0.19110672 89.12089744 0.05146739 92.94799805 3.16113281 C94.08423923 5.43361519 94.21246648 6.94416045 94.32299805 9.47363281 C94.37198242 10.23289062 94.4209668 10.99214844 94.47143555 11.77441406 C93.65203541 15.51063411 91.94250065 16.82547444 88.94799805 19.16113281 C85.75666611 19.8952396 82.63537535 19.84481088 79.37182617 19.80810547 C78.41352402 19.81686707 77.45522186 19.82562866 76.46788025 19.83465576 C73.30454039 19.85663757 70.14260177 19.84210077 66.97924805 19.82519531 C64.77876518 19.82856378 62.57828412 19.83341665 60.37780762 19.83969116 C55.76772331 19.84706087 51.15812364 19.83635333 46.5480957 19.81298828 C40.63953323 19.78450102 34.73210632 19.80090439 28.82358551 19.8308506 C24.28020678 19.84892057 19.73709717 19.8431668 15.19371033 19.83021164 C13.01521165 19.82687682 10.83668851 19.83096732 8.65821838 19.84260941 C5.61287751 19.85531264 2.56937397 19.83594726 -0.47583008 19.80810547 C-1.37572159 19.81822662 -2.2756131 19.82834778 -3.20277405 19.83877563 C-7.68007596 19.76296213 -9.48390311 19.60895751 -13.11120605 16.74960327 C-15.54558139 13.50283805 -15.72889583 11.99490134 -15.4855957 8.09472656 C-14.80394802 5.05494635 -13.24967908 3.29417238 -11.05200195 1.16113281 C-7.64432287 -0.54270673 -3.74979444 0.00469939 0 0 Z " fill="#F6F4F2" transform="translate(659.052001953125,462.8388671875)"/>
<path d="M0 0 C0.95830215 -0.0087616 1.91660431 -0.01752319 2.90394592 -0.02655029 C6.06728578 -0.0485321 9.2292244 -0.0339953 12.39257812 -0.01708984 C14.593061 -0.02045831 16.79354205 -0.02531118 18.99401855 -0.03158569 C23.60410286 -0.0389554 28.21370253 -0.02824786 32.82373047 -0.00488281 C38.73229294 0.02360445 44.63971986 0.00720108 50.54824066 -0.02274513 C55.09161939 -0.0408151 59.634729 -0.03506133 64.17811584 -0.02210617 C66.35661453 -0.01877136 68.53513766 -0.02286185 70.71360779 -0.03450394 C73.75894866 -0.04720717 76.8024522 -0.02784179 79.84765625 0 C81.19749352 -0.01518173 81.19749352 -0.01518173 82.57460022 -0.03067017 C87.04090959 0.0449572 88.85720442 0.20325007 92.48303223 3.04263306 C95.05565995 6.49482309 95.08562601 8.40104762 94.85742188 12.55712891 C94.23152532 15.57383753 92.90191909 16.89773198 90.42382812 18.64697266 C87.02023928 20.34876708 83.1337038 19.82192178 79.38769531 19.83984375 C78.45094467 19.84802124 77.51419403 19.85619873 76.54905701 19.86462402 C73.43961226 19.88949793 70.33021325 19.9059996 67.22070312 19.92041016 C65.62944988 19.92839567 65.62944988 19.92839567 64.00605011 19.93654251 C58.39059674 19.96328339 52.77516567 19.98265488 47.15966797 19.99707031 C41.35774449 20.01371597 35.55638927 20.0584908 29.75468063 20.10944176 C25.29540348 20.14309091 20.83626155 20.15464526 16.3768692 20.16029739 C14.23822947 20.16701681 12.09959885 20.18225669 9.96108246 20.2061882 C6.96609662 20.23779043 3.97264771 20.23788361 0.97753906 20.23046875 C0.09523117 20.24687408 -0.78707672 20.26327942 -1.69612122 20.28018188 C-5.95672984 20.23704071 -8.7334939 19.96483492 -12.12567139 17.25308228 C-14.57617188 14.64697266 -14.57617188 14.64697266 -15.33789062 12.36572266 C-15.31339844 11.63353516 -15.28890625 10.90134766 -15.26367188 10.14697266 C-15.26753906 9.41478516 -15.27140625 8.68259766 -15.27539062 7.92822266 C-12.88703662 0.13605091 -6.93227673 -0.07796789 0 0 Z " fill="#F7F4F2" transform="translate(658.576171875,381.35302734375)"/>
<path d="M0 0 C0.96966202 -0.0071553 1.93932404 -0.01431061 2.93836975 -0.02168274 C6.13900055 -0.03857211 9.33823133 -0.01916644 12.53881836 0.00219727 C14.76411556 0.00136866 16.9894127 -0.00109039 19.21470642 -0.00511169 C23.87607264 -0.00796978 28.53695838 0.0067344 33.19824219 0.03417969 C39.17628529 0.06828176 45.15347028 0.0622375 51.1315546 0.04351711 C55.72549099 0.03295495 60.31922729 0.04187758 64.91314507 0.05690193 C67.11758264 0.0620886 69.32204106 0.06159609 71.52647591 0.05535698 C74.60534837 0.04991363 77.68298685 0.0702518 80.76171875 0.09765625 C82.13097504 0.08786743 82.13097504 0.08786743 83.52789307 0.07788086 C89.68934509 0.17125019 89.68934509 0.17125019 92.88011169 2.51210022 C95.44700324 6.29974695 95.05329393 10.24480427 94.31616211 14.63110352 C92.12489395 17.72910333 90.90559875 18.43462464 87.31616211 19.63110352 C84.31470626 19.73826261 81.33613222 19.78837777 78.33422852 19.79223633 C77.4152327 19.79720123 76.49623688 19.80216614 75.5493927 19.80728149 C72.50549576 19.82190136 69.46165091 19.82870454 66.41772461 19.83422852 C64.30406696 19.83997974 62.19040933 19.84573748 60.07675171 19.85150146 C55.64320635 19.8620107 51.20967912 19.867854 46.77612305 19.87133789 C41.09423328 19.87682499 35.41258286 19.90085806 29.7307682 19.92930984 C25.36417947 19.94792936 20.99764849 19.95314144 16.63102341 19.95467377 C14.53624537 19.95770195 12.4414684 19.96573602 10.34672928 19.97885895 C7.41659549 19.99590624 4.48704797 19.99404242 1.55688477 19.98754883 C0.69125412 19.99676361 -0.17437653 20.00597839 -1.0662384 20.01547241 C-5.75707493 19.98289409 -8.89715175 19.71086557 -12.68383789 16.63110352 C-14.79596293 13.46291596 -15.01540253 11.498911 -15.24243164 7.76391602 C-13.19440579 -0.05581905 -6.68657474 -0.08583622 0 0 Z " fill="#F3F1F0" transform="translate(658.683837890625,543.368896484375)"/>
<path d="M0 0 C5.23872588 2.43226559 9.39841957 6.79683915 12 12 C12.48887732 17.80241278 12.85545438 23.15748286 10.375 28.5 C2.57743363 36.7079646 2.57743363 36.7079646 -3.48828125 37.203125 C-10.00473606 37.31128193 -14.67892604 37.16902479 -19.62109375 32.453125 C-23.85603529 27.86273273 -25.67947521 23.88472307 -26.375 17.625 C-25.79745152 12.04203132 -24.15104254 8.18349362 -20.1875 4.16015625 C-13.95008099 -0.71282735 -7.69277432 -1.1788135 0 0 Z " fill="#051C31" transform="translate(655,247)"/>
<path d="M0 0 C1.30453125 -0.00386719 2.6090625 -0.00773438 3.953125 -0.01171875 C4.97019531 -0.00229248 4.97019531 -0.00229248 6.0078125 0.00732422 C8.05798056 0.02328072 10.10614577 0.00751948 12.15625 -0.01171875 C19.18124382 0.00902434 25.04250512 0.10080933 31.328125 3.3984375 C33.328125 6.3984375 33.328125 6.3984375 33.328125 9.3359375 C32.328125 12.3984375 32.328125 12.3984375 29.828125 14.6484375 C20.32695724 19.39902138 7.65270205 20.25348704 -2.6640625 17.640625 C-5.82490227 16.32447205 -8.19705535 14.80343073 -10.796875 12.5859375 C-12.15087 9.20095 -11.61674276 6.86295261 -10.671875 3.3984375 C-7.39933375 0.02953052 -4.56524545 0.01303646 0 0 Z " fill="#051C30" transform="translate(276.671875,639.6015625)"/>
<path d="M0 0 C0.33 0 0.66 0 1 0 C1.02578125 0.60328125 1.0515625 1.2065625 1.078125 1.828125 C1.13484375 2.62734375 1.1915625 3.4265625 1.25 4.25 C1.29640625 5.03890625 1.3428125 5.8278125 1.390625 6.640625 C2.24332453 9.94210268 3.23750373 10.96284989 6 13 C9.15072295 13.59540052 12.2645041 13.52562345 15.46264648 13.48583984 C16.42080261 13.48963654 17.37895874 13.49343323 18.3661499 13.49734497 C21.53479708 13.50475683 24.70252799 13.48335707 27.87109375 13.4609375 C30.07300204 13.45855315 32.27491238 13.45764773 34.4768219 13.4581604 C39.09283169 13.45503119 43.70853117 13.43845749 48.32446289 13.41162109 C54.24059384 13.37766125 60.15638337 13.36999193 66.07260036 13.37151146 C70.62021645 13.37096746 75.16775794 13.35999503 79.7153492 13.34550858 C81.89663186 13.33914501 84.07792296 13.33520271 86.2592144 13.33372116 C89.30894215 13.32938241 92.35830889 13.31186811 95.40795898 13.29052734 C96.76015282 13.2918869 96.76015282 13.2918869 98.1396637 13.29327393 C102.53564867 13.24831782 106.0022685 13.06532289 110 11 C108.6875 13 108.6875 13 107 15 C106.01 15 105.02 15 104 15 C104 15.66 104 16.32 104 17 C71.99 17 39.98 17 7 17 C7 16.34 7 15.68 7 15 C6.236875 14.79375 5.47375 14.5875 4.6875 14.375 C1.03951399 12.50858855 0.30641568 10.84666838 -1 7 C-0.6875 3.125 -0.6875 3.125 0 0 Z " fill="#1D2C39" transform="translate(643,468)"/>
<path d="M0 0 C0.89623581 0.0143811 1.79247162 0.02876221 2.71586609 0.0435791 C4.13566772 0.04270294 4.13566772 0.04270294 5.58415222 0.04180908 C8.71737657 0.04459909 11.84965334 0.07573479 14.98271179 0.10705566 C17.15318278 0.11451478 19.3236605 0.12020927 21.49414062 0.12420654 C27.21044974 0.13948871 32.92635316 0.17879309 38.64250183 0.22302246 C44.47394828 0.26391932 50.30546019 0.28220563 56.13700867 0.30236816 C67.5818485 0.34528458 79.02638705 0.41356737 90.47099304 0.49768066 C90.47099304 1.15768066 90.47099304 1.81768066 90.47099304 2.49768066 C92.12099304 3.15768066 93.77099304 3.81768066 95.47099304 4.49768066 C95.47099304 5.48768066 95.47099304 6.47768066 95.47099304 7.49768066 C94.78187836 6.76571724 94.78187836 6.76571724 94.07884216 6.01896667 C90.08733204 3.69052349 86.28605868 4.104446 81.7454071 4.15710449 C80.75971237 4.15666641 79.77401764 4.15622833 78.75845337 4.15577698 C75.50097332 4.1578667 72.24400817 4.18120686 68.98661804 4.20471191 C66.72789288 4.2103072 64.46916407 4.21457762 62.21043396 4.21757507 C56.26571093 4.22902906 50.32120781 4.25850125 44.37657166 4.29168701 C38.31041946 4.32237581 32.24423174 4.33607788 26.17802429 4.35119629 C14.27558393 4.38337022 2.37330677 4.43457346 -9.52900696 4.49768066 C-7.36188984 -0.13553305 -4.6198634 0.03096811 0 0 Z " fill="#1C2D3A" transform="translate(656.5290069580078,378.5023193359375)"/>
<path d="M0 0 C8.91 0 17.82 0 27 0 C27 0.33 27 0.66 27 1 C19.08 1.33 11.16 1.66 3 2 C3 7.61 3 13.22 3 19 C4.69769531 18.96519531 6.39539063 18.93039062 8.14453125 18.89453125 C10.36717763 18.86639649 12.58983468 18.839096 14.8125 18.8125 C15.93205078 18.78736328 17.05160156 18.76222656 18.20507812 18.73632812 C19.27822266 18.72666016 20.35136719 18.71699219 21.45703125 18.70703125 C22.44678955 18.6913208 23.43654785 18.67561035 24.45629883 18.65942383 C27 19 27 19 30 22 C20.1 22 10.2 22 0 22 C0 14.74 0 7.48 0 0 Z " fill="#E3E5E6" transform="translate(746,283)"/>
<path d="M0 0 C2.0225534 3.0338301 2.25577087 3.68758864 2.31884766 7.10424805 C2.33871735 7.92487228 2.35858704 8.74549652 2.37905884 9.59098816 C2.39061005 10.47232925 2.40216125 11.35367035 2.4140625 12.26171875 C2.43342865 13.16751175 2.4527948 14.07330475 2.4727478 15.00654602 C2.53253542 17.90010151 2.57892568 20.7936968 2.625 23.6875 C2.66318054 25.64910591 2.70223231 27.61069506 2.7421875 29.57226562 C2.83823632 34.3813744 2.92227043 39.19056166 3 44 C-0.61546696 40.54353909 -0.94478986 38.50515346 -1.12939453 33.47241211 C-1.13596627 32.07407097 -1.13677884 30.67569471 -1.1328125 29.27734375 C-1.13424759 28.16450768 -1.13424759 28.16450768 -1.13571167 27.02919006 C-1.1363906 25.46501582 -1.13455638 23.90083872 -1.13037109 22.33666992 C-1.12501115 19.94248134 -1.13032968 17.5484797 -1.13671875 15.15429688 C-1.13605807 13.63281209 -1.13477711 12.11132741 -1.1328125 10.58984375 C-1.13483673 9.87416733 -1.13686096 9.15849091 -1.13894653 8.42112732 C-1.12438927 5.33817275 -0.98286033 2.94858098 0 0 Z " fill="#D3D6D8" transform="translate(569,271)"/>
<path d="M0 0 C3.3 0 6.6 0 10 0 C10 6.6 10 13.2 10 20 C5.05 20 0.1 20 -5 20 C-5 19.67 -5 19.34 -5 19 C-6.98 18.67 -8.96 18.34 -11 18 C-11 17.67 -11 17.34 -11 17 C-8.93757383 16.97282308 -6.87504297 16.9535242 -4.8125 16.9375 C-3.66394531 16.92589844 -2.51539063 16.91429687 -1.33203125 16.90234375 C2 17 2 17 7 18 C7 13.05 7 8.1 7 3 C5.35 3 3.7 3 2 3 C1.34 2.01 0.68 1.02 0 0 Z " fill="#E8EAEB" transform="translate(469,404)"/>
<path d="M0 0 C19.8 0.495 19.8 0.495 40 1 C39.67 1.99 39.34 2.98 39 4 C34.94323508 4.04954711 30.88658806 4.085789 26.82958984 4.10986328 C25.45032685 4.11990253 24.07108504 4.13353677 22.69189453 4.15087891 C20.7061486 4.17521754 18.7202455 4.18543255 16.734375 4.1953125 C14.94338379 4.21102295 14.94338379 4.21102295 13.11621094 4.22705078 C10.0785209 4.00572112 8.58385849 3.48872724 6 2 C4.00889599 1.61709538 2.00899487 1.27395385 0 1 C0 0.67 0 0.34 0 0 Z " fill="#1E3347" transform="translate(386,603)"/>
<path d="M0 0 C1.59780727 0.04237323 3.19533944 0.09604882 4.79248047 0.15869141 C5.63310028 0.18371735 6.47372009 0.20874329 7.33981323 0.23452759 C10.03016855 0.31683536 12.71980144 0.41338226 15.40966797 0.51025391 C17.23125284 0.56848251 19.05286754 0.62578602 20.87451172 0.68212891 C25.34498085 0.82243005 29.81485323 0.97550491 34.28466797 1.13525391 C34.28466797 1.46525391 34.28466797 1.79525391 34.28466797 2.13525391 C24.38466797 2.63025391 24.38466797 2.63025391 14.28466797 3.13525391 C14.28466797 3.46525391 14.28466797 3.79525391 14.28466797 4.13525391 C11.5135749 4.18917788 8.74352979 4.22888845 5.97216797 4.26025391 C5.18648437 4.27701172 4.40080078 4.29376953 3.59130859 4.31103516 C2.83398438 4.31748047 2.07666016 4.32392578 1.29638672 4.33056641 C0.25164185 4.34627686 0.25164185 4.34627686 -0.81420898 4.36230469 C-2.71533203 4.13525391 -2.71533203 4.13525391 -5.71533203 2.13525391 C-3.71533203 0.13525391 -3.71533203 0.13525391 0 0 Z " fill="#EEEDEC" transform="translate(581.71533203125,315.86474609375)"/>
<path d="M0 0 C3 1 3 1 4.1484375 2.55859375 C5.35219553 6.00973489 5.46867037 9.44412049 5.625 13.0625 C5.66367187 13.78244141 5.70234375 14.50238281 5.7421875 15.24414062 C5.89410294 18.16580006 6 21.07412005 6 24 C5.01 24.33 4.02 24.66 3 25 C2.98018066 24.38479492 2.96036133 23.76958984 2.93994141 23.13574219 C2.84450273 20.34007458 2.73490045 17.5451349 2.625 14.75 C2.57859375 13.29787109 2.57859375 13.29787109 2.53125 11.81640625 C2.49257813 10.88183594 2.45390625 9.94726562 2.4140625 8.984375 C2.3826416 8.12553711 2.3512207 7.26669922 2.31884766 6.38183594 C1.98283796 3.8717972 1.25808272 2.18067672 0 0 Z " fill="#1F262E" transform="translate(281,472)"/>
<path d="M0 0 C6.93 0 13.86 0 21 0 C16.61449685 3.28912736 14.40390167 3.37748314 9.25 3.1875 C8.55261719 3.17396484 7.85523438 3.16042969 7.13671875 3.14648438 C5.42414459 3.1112945 3.71197059 3.05749155 2 3 C2 2.34 2 1.68 2 1 C1.34 0.67 0.68 0.34 0 0 Z " fill="#E5E5E7" transform="translate(390,421)"/>
<path d="M0 0 C0 0.33 0 0.66 0 1 C6.93 1.33 13.86 1.66 21 2 C21 2.33 21 2.66 21 3 C20.22285645 2.99476318 19.44571289 2.98952637 18.64501953 2.98413086 C15.13835451 2.96339844 11.63170237 2.95035179 8.125 2.9375 C6.90167969 2.92912109 5.67835938 2.92074219 4.41796875 2.91210938 C3.25136719 2.90888672 2.08476563 2.90566406 0.8828125 2.90234375 C-0.19597168 2.89710693 -1.27475586 2.89187012 -2.38623047 2.88647461 C-4.98232186 2.82116894 -4.98232186 2.82116894 -7 4 C-7 3.01 -7 2.02 -7 1 C-4.53721199 -0.231394 -2.7204945 -0.07159196 0 0 Z " fill="#ECEBEA" transform="translate(579,267)"/>
<path d="M0 0 C0.33 0.99 0.66 1.98 1 3 C-3.296875 7.00390625 -3.296875 7.00390625 -5 8 C-7.203125 7.65234375 -7.203125 7.65234375 -9 7 C-7.88121617 5.82737096 -6.75476949 4.66204862 -5.625 3.5 C-4.68527344 2.52546875 -4.68527344 2.52546875 -3.7265625 1.53125 C-2 0 -2 0 0 0 Z " fill="#122332" transform="translate(603,399)"/>
<path d="M0 0 C-0.66 0.66 -1.32 1.32 -2 2 C-2.66 1.67 -3.32 1.34 -4 1 C-5.95774069 0.84621148 -7.92017352 0.75028537 -9.8828125 0.68359375 C-11.04941406 0.64169922 -12.21601562 0.59980469 -13.41796875 0.55664062 C-14.64128906 0.51732422 -15.86460937 0.47800781 -17.125 0.4375 C-18.35605469 0.39431641 -19.58710937 0.35113281 -20.85546875 0.30664062 C-23.90352853 0.20031296 -26.9516719 0.09828219 -30 0 C-30 -0.33 -30 -0.66 -30 -1 C-25.75074388 -1.22594826 -21.50067556 -1.42771126 -17.25 -1.625 C-16.0434375 -1.68945312 -14.836875 -1.75390625 -13.59375 -1.8203125 C-12.43359375 -1.871875 -11.2734375 -1.9234375 -10.078125 -1.9765625 C-9.00981445 -2.02893066 -7.94150391 -2.08129883 -6.84082031 -2.13525391 C-3.97056896 -1.99859876 -2.41781335 -1.49455551 0 0 Z " fill="#ECECEA" transform="translate(728,270)"/>
<path d="M0 0 C0.99 0 1.98 0 3 0 C3.53122363 1.76774419 4.04964073 3.53934083 4.5625 5.3125 C4.85253906 6.29863281 5.14257812 7.28476562 5.44140625 8.30078125 C6 11 6 11 5 14 C4.34 13.67 3.68 13.34 3 13 C2.37330801 10.83532539 1.84572626 8.64135476 1.375 6.4375 C1.11460937 5.23996094 0.85421875 4.04242188 0.5859375 2.80859375 C0.39257812 1.88175781 0.19921875 0.95492187 0 0 Z " fill="#EAEBEB" transform="translate(686,251)"/>
<path d="M0 0 C6.27 0 12.54 0 19 0 C19 0.33 19 0.66 19 1 C16.95928485 1.33910994 14.91737379 1.67102704 12.875 2 C11.16957031 2.2784375 11.16957031 2.2784375 9.4296875 2.5625 C6.23862398 2.96956049 3.21182209 3.07809902 0 3 C0 2.01 0 1.02 0 0 Z " fill="#0F273D" transform="translate(277,655)"/>
<path d="M0 0 C4.95 0 9.9 0 15 0 C14.01 0.495 14.01 0.495 13 1 C13 1.66 13 2.32 13 3 C9.04 3 5.08 3 1 3 C0.67 2.01 0.34 1.02 0 0 Z " fill="#172A3D" transform="translate(291,588)"/>
<path d="M0 0 C0.66 0.33 1.32 0.66 2 1 C1.979375 2.0725 1.95875 3.145 1.9375 4.25 C1.9857984 7.14790424 2.13155885 9.28612141 3 12 C2.34 12 1.68 12 1 12 C-1.22923777 7.67265609 -0.92470553 4.71599818 0 0 Z " fill="#EBECED" transform="translate(242,487)"/>
<path d="M0 0 C7.75 -0.125 7.75 -0.125 10 1 C10 1.66 10 2.32 10 3 C10.99 3.33 11.98 3.66 13 4 C12.01 4.495 12.01 4.495 11 5 C10.34 4.67 9.68 4.34 9 4 C7.46331135 3.77532169 5.92031946 3.59203195 4.375 3.4375 C3.55773437 3.35371094 2.74046875 3.26992187 1.8984375 3.18359375 C1.27195312 3.12300781 0.64546875 3.06242188 0 3 C0 2.01 0 1.02 0 0 Z " fill="#E7E8E9" transform="translate(646,244)"/>
<path d="M0 0 C0.33 1.32 0.66 2.64 1 4 C-1.64 5.98 -4.28 7.96 -7 10 C-7.66 9.67 -8.32 9.34 -9 9 C-6.03 6.03 -3.06 3.06 0 0 Z " fill="#E3E5E5" transform="translate(607,447)"/>
<path d="M0 0 C0.99 0.66 1.98 1.32 3 2 C0.69 4.31 -1.62 6.62 -4 9 C-4.66 8.67 -5.32 8.34 -6 8 C-2.25 2.25 -2.25 2.25 0 0 Z " fill="#112336" transform="translate(621,541)"/>
<path d="M0 0 C0.33 0.66 0.66 1.32 1 2 C-1.64458379 3.32229189 -3.67761301 3.09677194 -6.625 3.0625 C-7.62789063 3.05347656 -8.63078125 3.04445313 -9.6640625 3.03515625 C-10.43492187 3.02355469 -11.20578125 3.01195312 -12 3 C-7.82744729 -0.58050131 -5.33135955 -0.26656798 0 0 Z " fill="#ECECEB" transform="translate(433,606)"/>
<path d="M0 0 C4.95 0.99 4.95 0.99 10 2 C10.33 3.32 10.66 4.64 11 6 C7.37 4.68 3.74 3.36 0 2 C0 1.34 0 0.68 0 0 Z " fill="#E8EAEB" transform="translate(316,557)"/>
<path d="M0 0 C0.99 0.66 1.98 1.32 3 2 C0.44931155 4.35448165 -0.71017358 4.98327924 -4.25 5.1875 C-5.1575 5.125625 -6.065 5.06375 -7 5 C-5.49336217 1.98672434 -2.96833589 1.38943382 0 0 Z " fill="#0A1928" transform="translate(788,641)"/>
<path d="M0 0 C2 0 2 0 3.9375 1.8125 C4.618125 2.534375 5.29875 3.25625 6 4 C6.5775 4.5775 7.155 5.155 7.75 5.75 C8.1625 6.1625 8.575 6.575 9 7 C8.01 7.33 7.02 7.66 6 8 C5.67 7.01 5.34 6.02 5 5 C2.49552484 3.78130071 2.49552484 3.78130071 0 3 C0 2.01 0 1.02 0 0 Z " fill="#EAEBEB" transform="translate(516,619)"/>
<path d="M0 0 C0.66 1.32 1.32 2.64 2 4 C1.5875 4.350625 1.175 4.70125 0.75 5.0625 C-1.70762407 7.78344094 -3.24051885 10.78439652 -5 14 C-5.33 13.34 -5.66 12.68 -6 12 C-4.78515625 9.1796875 -4.78515625 9.1796875 -3.0625 5.875 C-2.49660156 4.77929688 -1.93070312 3.68359375 -1.34765625 2.5546875 C-0.90292969 1.71164062 -0.45820313 0.86859375 0 0 Z " fill="#E5E8E9" transform="translate(298,475)"/>
<path d="M0 0 C1.4370809 -0.05422947 2.87475462 -0.09289723 4.3125 -0.125 C5.11300781 -0.14820313 5.91351563 -0.17140625 6.73828125 -0.1953125 C9 0 9 0 12 2 C7.91556885 3.53166168 4.20544343 2.63081652 0 2 C0 1.34 0 0.68 0 0 Z " fill="#CDD2D6" transform="translate(270,472)"/>
<path d="M0 0 C0 0.66 0 1.32 0 2 C-1.75 3.125 -1.75 3.125 -4 4 C-6.25 3.125 -6.25 3.125 -8 2 C-8 1.34 -8 0.68 -8 0 C-2.25 -1.125 -2.25 -1.125 0 0 Z " fill="#E9EAEA" transform="translate(302,657)"/>
<path d="M0 0 C0.99 0.66 1.98 1.32 3 2 C1.4375 3.5625 1.4375 3.5625 -1 5 C-4.75 4.6875 -4.75 4.6875 -8 4 C-8 3.67 -8 3.34 -8 3 C-6.865625 2.690625 -5.73125 2.38125 -4.5625 2.0625 C-1.21224901 1.37075469 -1.21224901 1.37075469 0 0 Z " fill="#1A2A39" transform="translate(577,503)"/>
<path d="M0 0 C-3.00617269 3.00617269 -5.82381598 2.59585316 -10 3 C-9.67 2.01 -9.34 1.02 -9 0 C-5.8033 -1.37001429 -3.30096158 -0.8252404 0 0 Z " fill="#122538" transform="translate(784,646)"/>
<path d="M0 0 C1 3 1 3 -0.4375 6.1875 C-1.2109375 7.5796875 -1.2109375 7.5796875 -2 9 C-2.66 9 -3.32 9 -4 9 C-4 9.66 -4 10.32 -4 11 C-4.66 10.67 -5.32 10.34 -6 10 C-4.02 6.7 -2.04 3.4 0 0 Z " fill="#E7E9E9" transform="translate(322,429)"/>
<path d="M0 0 C0.66 0.33 1.32 0.66 2 1 C1.01 2.98 0.02 4.96 -1 7 C-1.99 7 -2.98 7 -4 7 C-3.6875 4.625 -3.6875 4.625 -3 2 C-2.01 1.34 -1.02 0.68 0 0 Z " fill="#EAECEB" transform="translate(649,382)"/>
<path d="M0 0 C1.9451 2.91765 2.45276317 4.62537285 3 8 C2.01 8 1.02 8 0 8 C-0.38063221 5.6739143 -0.71269945 3.33944736 -1 1 C-0.67 0.67 -0.34 0.34 0 0 Z " fill="#EDEEEE" transform="translate(479,622)"/>
<path d="M0 0 C-0.33 0.99 -0.66 1.98 -1 3 C-3.64 3 -6.28 3 -9 3 C-6.01800145 0.01800145 -4.21244839 0 0 0 Z " fill="#E1E3E5" transform="translate(348,409)"/>
<path d="M0 0 C4.29 0.33 8.58 0.66 13 1 C13 1.33 13 1.66 13 2 C8.05 2.33 3.1 2.66 -2 3 C-1.34 2.01 -0.68 1.02 0 0 Z " fill="#EDECEA" transform="translate(578,316)"/>
<path d="M0 0 C4.75 1.875 4.75 1.875 7 3 C7 3.66 7 4.32 7 5 C4.69 4.34 2.38 3.68 0 3 C0 2.01 0 1.02 0 0 Z " fill="#E9EBEC" transform="translate(297,549)"/>
<path d="M0 0 C0.66 0 1.32 0 2 0 C0.60667426 3.36720387 -0.9789286 4.9859524 -4 7 C-4.33 6.01 -4.66 5.02 -5 4 C-4.01 4 -3.02 4 -2 4 C-2 3.34 -2 2.68 -2 2 C-1.34 2 -0.68 2 0 2 C0 1.34 0 0.68 0 0 Z " fill="#D4D5D8" transform="translate(582,496)"/>
</svg>
